# AST/ASF file generated using VICON BodyLanguage
# -----------------------------------------------
:version 1.10
:name VICON
:units
  mass 1.0
  length 0.45
  angle deg
:documentation
   .ast/.asf automatically generated from VICON data using
   VICON BodyBuilder and BodyLanguage model FoxedUp or BRILLIANT.MOD
:root
   order TX TY TZ RX RY RZ
   axis XYZ
   position 0 0 0  
   orientation 0 0 0 
:bonedata
  begin
     id 1 
     name lhipjoint
     direction 0.596438 -0.722117 0.35044 
     length 2.43043 
     axis 0 0 0  XYZ
  end
  begin
     id 2 
     name lfemur
     direction 0.34202 -0.939693 0  
     length 7.0339  
     axis 0 0 20  XYZ
    dof rx ry rz
    limits (-160.0 20.0)
           (-70.0 70.0)
           (-60.0 70.0)
  end
  begin
     id 3 
     name ltibia
     direction 0.34202 -0.939693 0   
     length 7.56602   
     axis 0 0 20   XYZ
    dof rx
    limits (-10.0 170.0)
  end
  begin
     id 4 
     name lfoot
     direction 0.0985677 -0.270812 0.957572   
     length 1.85172   
     axis -90 7.62852e-016 20   XYZ
    dof rx rz
    limits (-45.0 90.0)
           (-70.0 20.0)
  end
  begin
     id 5 
     name ltoes
     direction 1.53534e-011 -4.21843e-011 1   
     length 0.929904   
     axis -90 7.62852e-016 20   XYZ
    dof rx
    limits (-90.0 20.0)
  end
  begin
     id 6 
     name rhipjoint
     direction -0.585088 -0.729594 0.354068   
     length 2.40552  
     axis 0 0 0  XYZ 
  end
  begin
     id 7 
     name rfemur
     direction -0.34202 -0.939693 0   
     length 7.12573   
     axis 0 0 -20   XYZ
    dof rx ry rz
    limits (-160.0 20.0)
           (-70.0 70.0)
           (-70.0 60.0)
  end
  begin
     id 8 
     name rtibia
     direction -0.34202 -0.939693 0   
     length 7.35777   
     axis 0 0 -20   XYZ
    dof rx
    limits (-10.0 170.0)
 end
 begin
     id 9 
     name rfoot
     direction -0.120907 -0.33219 0.935431   
     length 2.0994  
     axis -90 -7.62852e-016 -20   XYZ
    dof rx rz
    limits (-45.0 90.0)
           (-20.0 70.0)
  end
  begin
     id 10 
     name rtoes
     direction -1.53577e-011 -4.21787e-011 1   
     length 1.04244   
     axis -90 -7.62852e-016 -20   XYZ
    dof rx
    limits (-90.0 20.0)
  end
  begin
     id 11 
     name lowerback
     direction 0.00268363 0.993603 -0.112896   
     length 2.15839   
     axis 0 0 0   XYZ
    dof rx ry rz
    limits (-20.0 45.0)
           (-30.0 30.0)
           (-30.0 30.0)
  end
  begin
     id 12 
     name upperback
     direction 0.0272563 0.999411 -0.0208618   
     length 2.16443   
     axis 0 0 0   XYZ
    dof rx ry rz
    limits (-20.0 45.0)
           (-30.0 30.0)
           (-30.0 30.0)
  end
  begin
     id 13 
     name thorax
     direction 0.0254655 0.999174 0.0316806   
     length 2.19003   
     axis 0 0 0   XYZ
    dof rx ry rz
    limits (-20.0 45.0)
           (-30.0 30.0)
           (-30.0 30.0)
  end
  begin
     id 14 
     name lowerneck
     direction -0.0102178 0.988048 0.15381   
     length 1.61507   
     axis 0 0 0   XYZ
    dof rx ry rz
    limits (-20.0 45.0)
           (-30.0 30.0)
           (-30.0 30.0)
  end
  begin
     id 15 
     name upperneck
     direction -0.0061965 0.994088 -0.108398   
     length 1.64042   
     axis 0 0 0   XYZ
    dof rx ry rz
    limits (-20.0 45.0)
           (-30.0 30.0)
           (-30.0 30.0)
  end
  begin
     id 16
     name head
     direction -0.00151929 0.998591 -0.0530385  
     length 1.64343  
     axis 0 0 0   XYZ
    dof rx ry rz
    limits (-20.0 45.0)
           (-30.0 30.0)
           (-30.0 30.0)
  end
  begin
     id 17 
     name lclavicle
     direction 0.948974 0.284245 -0.136574  
     length 3.3483  
     axis 0 0 0   XYZ
    dof ry rz
    limits (-20.0 10.0)
           (0.0 20.0)
  end
  begin
     id 18 
     name lhumerus
     direction 1 -4.48961e-011 1.68576e-027   
     length 4.93485   
     axis -180 -30 -90   XYZ
    dof rx ry rz
    limits (-60.0 90.0)
           (-90.0 90.0)
           (-90.0 90.0)
  end
  begin
     id 19
     name lradius
     direction 1 -4.48965e-011 -2.46405e-027   
     length 3.41719   
     axis -180 -30 -90   XYZ
    dof rx
    limits (-10.0 170.0)
  end
  begin
     id 20
     name lwrist
     direction 1 -4.48968e-011 -8.00486e-028   
     length 1.7086   
     axis 3.27501e-015 90 90   XYZ
    dof ry
    limits (-180.0 0.0)
 end
  begin
     id 21 
     name lhand
     direction 1 -4.48977e-011 -1.60161e-027   
     length 0.6241   
     axis 1.02148e-015 90 90   XYZ
    dof rx rz
    limits (-90.0 90.0)
           (-45.0 45.0)
  end
  begin
     id 22 
     name lfingers
     direction 1 -4.49049e-011 -3.21275e-027   
     length 0.503166   
     axis 2.04295e-015 90 90   XYZ
    dof rx
    limits (0.0 90.0)
  end
  begin
     id 23
     name lthumb
     direction 0.707107 -6.34975e-011 0.707107   
     length 0.722448   
     axis -90 45 -1.62303e-014   XYZ
    dof rx rz
    limits (-45.0 45.0)
           (-45.0 45.0)
  end
  begin
     id 24 
     name rclavicle
     direction -0.904485 0.355099 -0.236246   
     length 3.18329  
     axis 0 0 0   XYZ 
    dof ry rz
    limits (-10.0 20.0)
           (-20.0 0.0)
  end
  begin
     id 25 
     name rhumerus
     direction -1 -4.48953e-011 1.32816e-027  
     length 5.22034   
     axis -180 30 90   XYZ
    dof rx ry rz
    limits (-90.0 60.0)
           (-90.0 90.0)
           (-90.0 90.0)
  end
  begin
     id 26 
     name rradius
     direction -1 -4.48965e-011 -3.93727e-027   
     length 3.41809   
     axis -180 30 90   XYZ
    dof rx
    limits (-10.0 170.0)
  end
  begin
     id 27 
     name rwrist
     direction -1 -4.48962e-011 -8.003e-028   
     length 1.70904   
     axis 3.27501e-015 -90 -90   XYZ
    dof ry
    limits (-180.0 0.0)
  end
  begin
     id 28
     name rhand
     direction -1 -4.49008e-011 -1.60365e-027   
     length 0.77534   
     axis 1.02148e-015 -90 -90   XYZ
    dof rx rz
    limits (-90.0 90.0)
           (-45.0 45.0)
  end
  begin
     id 29
     name rfingers
     direction -1 -4.49001e-011 -3.2064e-027   
     length 0.625099   
     axis 2.04295e-015 -90 -90   XYZ
    dof rx
    limits (0.0 90.0)
  end
  begin
     id 30
     name rthumb
     direction -0.707107 -6.34989e-011 0.707107   
     length 0.897521   
     axis -90 -45 1.62303e-014   XYZ
    dof rx rz
    limits (-45.0 45.0)
           (-45.0 45.0)
  end
:hierarchy
  begin
    root lhipjoint rhipjoint lowerback
    lhipjoint lfemur
    lfemur ltibia
    ltibia lfoot
    lfoot ltoes
    rhipjoint rfemur
    rfemur rtibia
    rtibia rfoot
    rfoot rtoes
    lowerback upperback
    upperback thorax
    thorax lowerneck lclavicle rclavicle
    lowerneck upperneck
    upperneck head
    lclavicle lhumerus
    lhumerus lradius
    lradius lwrist
    lwrist lhand lthumb
    lhand lfingers
    rclavicle rhumerus
    rhumerus rradius
    rradius rwrist
    rwrist rhand rthumb
    rhand rfingers
  end

#!OML:ASF \\sashay\E\Suitcase\Project 1\Capture day 1\Session 1\Male1.ASF
:FULLY-SPECIFIED
:DEGREES
158
root 1.77954 17.6529 -37.6261 11.0495 -8.65981 3.39266
lowerback 33.8666 -1.50654 9.63743
upperback 12.7122 2.19135 18.0645
thorax -3.93493 0.64718 13.788
lowerneck -9.12012 -12.7731 -9.44048
upperneck 18.428 -16.5762 3.56034
head 8.31001 -8.08336 0.915074
rclavicle -2.54444e-014 0
rhumerus 10.7265 -6.96117 -57.4328
rradius 28.7679
rwrist -2.82736
rhand -35.0232 31.9897
rfingers 7.12502
rthumb -8.16719 2.16755
lclavicle -2.54444e-014 0
lhumerus -27.819 -13.6239 104.795
lradius 65.808
lwrist 5.64465
lhand -9.16999 40.7815
lfingers 7.12502
lthumb 16.7828 70.0762
rfemur -29.1543 1.1747 13.5901
rtibia 29.2971
rfoot -11.4277 -4.40808
rtoes 9.76145
lfemur -23.6482 -1.0787 -21.6386
ltibia 23.9521
lfoot -11.468 7.94469
ltoes 6.92385
159
root 1.76425 17.6501 -37.644 11.2622 -8.92832 3.54447
lowerback 34.1596 -1.44481 9.62248
upperback 12.8039 2.30733 18.238
thorax -3.98406 0.69 13.9657
lowerneck -8.92602 -12.7356 -9.78062
upperneck 18.2358 -16.4944 3.64694
head 8.24477 -8.06525 1.01731
rclavicle 6.36111e-014 -9.54166e-015
rhumerus 11.3529 -6.79186 -56.987
rradius 28.6889
rwrist -2.84051
rhand -35.1024 32.4671
rfingers 7.12502
rthumb -8.24356 2.64794
lclavicle 6.36111e-014 -9.54166e-015
lhumerus -27.7381 -13.2817 104.89
lradius 66.1675
lwrist 5.5892
lhand -8.51216 40.9762
lfingers 7.12502
lthumb 17.416 70.216
rfemur -29.6454 1.69715 13.3215
rtibia 29.4867
rfoot -11.4679 -4.7372
rtoes 10.9708
lfemur -23.886 -0.918185 -21.7383
ltibia 23.794
lfoot -11.1742 7.98799
ltoes 6.96315
160
root 1.75013 17.6525 -37.6581 11.4494 -9.20943 3.92795
lowerback 34.5338 -1.44915 9.45231
upperback 12.7959 2.32078 18.2594
thorax -4.15566 0.686296 14.0883
lowerneck -8.45353 -12.6099 -10.0438
upperneck 17.9495 -16.3088 3.63858
head 8.07647 -8.00902 1.11441
rclavicle 1.84472e-013 3.33958e-014
rhumerus 12.2899 -7.10849 -57.1497
rradius 28.1195
rwrist -1.515
rhand -35.6021 33.2238
rfingers 7.12502
rthumb -8.72579 3.42419
lclavicle 1.84472e-013 3.33958e-014
lhumerus -27.9957 -13.0246 104.829
lradius 66.6188
lwrist 5.55665
lhand -8.79048 40.6216
lfingers 7.12502
lthumb 17.1481 69.8848
rfemur -30.1277 1.9142 12.8863
rtibia 29.7136
rfoot -11.4637 -4.58293
rtoes 11.1564
lfemur -24.0886 -0.907529 -22.086
ltibia 23.6049
lfoot -10.9496 8.08875
ltoes 5.16175
161
root 1.73826 17.6488 -37.6692 11.4158 -9.33752 4.17068
lowerback 35.214 -1.47987 9.64179
upperback 12.7125 2.48857 18.2768
thorax -4.51524 0.762271 13.9558
lowerneck -8.11924 -12.6805 -9.89778
upperneck 17.8243 -16.4225 3.48695
head 7.95775 -8.07212 1.05957
rclavicle -6.36111e-015 4.6118e-014
rhumerus 12.6755 -7.42948 -57.0684
rradius 28.004
rwrist -1.10447
rhand -35.1858 33.6525
rfingers 7.12502
rthumb -8.32408 3.83646
lclavicle -6.36111e-015 4.6118e-014
lhumerus -28.123 -13.0978 104.834
lradius 66.954
lwrist 5.9098
lhand -9.01878 40.5341
lfingers 7.12502
lthumb 16.9284 69.8164
rfemur -30.2835 2.07286 12.6379
rtibia 29.8662
rfoot -11.4672 -4.87751
rtoes 11.0105
lfemur -24.046 -0.922089 -22.283
ltibia 23.4585
lfoot -10.8704 8.12476
ltoes 6.54444
162
root 1.72761 17.6504 -37.6798 11.5409 -9.74953 4.42001
lowerback 35.5383 -1.29184 9.38328
upperback 12.881 2.67478 18.4842
thorax -4.53168 0.83313 14.279
lowerneck -8.0473 -12.7088 -10.1972
upperneck 17.7057 -16.4191 3.48682
head 7.93284 -8.09098 1.10818
rclavicle -3.18055e-015 -4.6118e-014
rhumerus 13.8522 -7.62817 -56.8897
rradius 27.2428
rwrist -0.375327
rhand -35.6405 34.6682
rfingers 7.12502
rthumb -8.76286 4.87006
lclavicle -3.18055e-015 -4.6118e-014
lhumerus -28.1033 -12.8261 105.111
lradius 67.2639
lwrist 5.4394
lhand -8.65342 40.5898
lfingers 7.12502
lthumb 17.28 69.8416
rfemur -30.7274 2.12033 12.4412
rtibia 30.0168
rfoot -11.378 -4.64058
rtoes 9.72837
lfemur -24.1755 -0.712885 -22.5476
ltibia 23.3374
lfoot -10.6608 8.12526
ltoes 3.2697
163
root 1.71739 17.6506 -37.6843 11.6011 -10.0647 4.59399
lowerback 35.6331 -1.16659 9.43249
upperback 13.1373 2.79727 18.5155
thorax -4.29907 0.882474 14.2411
lowerneck -8.0676 -12.7998 -9.89873
upperneck 17.2913 -16.555 3.4278
head 7.77522 -8.14492 1.04454
rclavicle -8.5875e-014 -7.63333e-014
rhumerus 14.6015 -8.0038 -56.8413
rradius 26.8992
rwrist -0.0750687
rhand -36.1198 35.215
rfingers 7.12502
rthumb -9.22541 5.43682
lclavicle -8.5875e-014 -7.63333e-014
lhumerus -27.8328 -12.984 105.038
lradius 67.5354
lwrist 5.78243
lhand -8.69892 40.5368
lfingers 7.12502
lthumb 17.2362 69.7923
rfemur -30.9483 2.30946 12.2616
rtibia 30.1248
rfoot -11.2863 -4.76091
rtoes 10.6614
lfemur -24.2243 -0.564201 -22.69
ltibia 23.2238
lfoot -10.7482 8.16162
ltoes 4.1135
